<svg width="105" height="98" viewBox="0 0 105 98" fill="none" xmlns="http://www.w3.org/2000/svg">
<rect width="105" height="97.6316" rx="25.7895" fill="#6DB6FE"/>
<g clip-path="url(#clip0_7107_1118)">
<path d="M49.9 58.5908H59.9C60.8195 58.5881 61.7005 58.2217 62.3507 57.5715C63.0009 56.9214 63.3673 56.0403 63.37 55.1208C63.3647 54.203 62.9972 53.3245 62.3473 52.6765C61.6974 52.0285 60.8178 51.6634 59.9 51.6608H53.5599C52.1372 51.644 50.725 51.4148 49.37 50.9808C46.86 50.4408 42.8 50.4108 40.94 55.1208H36.94M63.3199 55.1208L72.3199 49.8208C73.1053 49.3449 74.0476 49.1998 74.9398 49.4172C75.832 49.6347 76.6015 50.1969 77.0799 50.9808C77.554 51.7656 77.6993 52.706 77.484 53.5973C77.2686 54.4886 76.7102 55.2589 75.93 55.7408L64.16 64.6007C62.0617 66.1799 59.5062 67.0329 56.88 67.0307H36.88M59.9801 39.4308L57.5299 41.8908C57.515 41.9062 57.4971 41.9185 57.4774 41.9269C57.4576 41.9353 57.4363 41.9395 57.4149 41.9395C57.3934 41.9395 57.3724 41.9353 57.3526 41.9269C57.3329 41.9185 57.3148 41.9062 57.2999 41.8908L55.7899 39.4208H49.19C48.6096 40.9309 47.5849 42.2296 46.2513 43.1454C44.9177 44.0613 43.3379 44.5513 41.7201 44.5508C39.5983 44.5508 37.5634 43.7079 36.0631 42.2076C34.5628 40.7074 33.7201 38.6725 33.7201 36.5508C33.7201 34.4291 34.5628 32.3942 36.0631 30.8939C37.5634 29.3936 39.5983 28.5508 41.7201 28.5508C43.3367 28.5495 44.9156 29.038 46.2491 29.952C47.5826 30.866 48.608 32.1625 49.19 33.6708H63.9L67.66 36.8608L62.66 42.0308L59.9801 39.4808M36.9 53.3508C36.9 53.2076 36.8431 53.0702 36.7418 52.9689C36.6405 52.8677 36.5032 52.8108 36.36 52.8108H31.0899C30.9467 52.8108 30.8094 52.8677 30.7081 52.9689C30.6068 53.0702 30.5499 53.2076 30.5499 53.3508V68.7808C30.5499 68.924 30.6068 69.0613 30.7081 69.1626C30.8094 69.2639 30.9467 69.3208 31.0899 69.3208H36.36C36.5032 69.3208 36.6405 69.2639 36.7418 69.1626C36.8431 69.0613 36.9 68.924 36.9 68.7808V53.3508Z" stroke="#F1FFF3" stroke-width="3" stroke-linecap="round" stroke-linejoin="round"/>
<path d="M39.57 38.2009C40.7629 38.2009 41.73 37.2338 41.73 36.0409C41.73 34.8479 40.7629 33.8809 39.57 33.8809C38.377 33.8809 37.41 34.8479 37.41 36.0409C37.41 37.2338 38.377 38.2009 39.57 38.2009Z" fill="#F1FFF3"/>
</g>
<defs>
<clipPath id="clip0_7107_1118">
<rect width="50.09" height="43.82" fill="white" transform="translate(29 27)"/>
</clipPath>
</defs>
</svg>
